<svg xmlns="http://www.w3.org/2000/svg" viewBox="0 0 256 256">
  <defs>
    <linearGradient id="shieldBg" x1="0" x2="1" y1="0" y2="1">
      <stop offset="0%" stop-color="#232323" />
      <stop offset="100%" stop-color="#2b2f77" />
    </linearGradient>
    <linearGradient id="steel" x1="0" x2="0" y1="0" y2="1">
      <stop offset="0%" stop-color="#6d7385" />
      <stop offset="100%" stop-color="#2f3548" />
    </linearGradient>
    <linearGradient id="light" x1="0" x2="0" y1="0" y2="1">
      <stop offset="0%" stop-color="#00e0ff" stop-opacity="0.95" />
      <stop offset="100%" stop-color="#007a9d" stop-opacity="0.6" />
    </linearGradient>
    <linearGradient id="engrave" x1="0" x2="1" y1="0" y2="0">
      <stop offset="0%" stop-color="#d8b36f" />
      <stop offset="100%" stop-color="#8a642e" />
    </linearGradient>
    <clipPath id="shieldClip">
      <path d="M128 32l72 32v76c0 52-40 86-72 96-32-10-72-44-72-96V64z" />
    </clipPath>
  </defs>
  <rect width="256" height="256" rx="56" fill="url(#shieldBg)" />
  <g clip-path="url(#shieldClip)">
    <rect x="32" y="16" width="128" height="224" fill="url(#steel)" />
    <rect x="128" y="16" width="128" height="224" fill="url(#light)" />
    <path d="M128 32l72 32v76c0 52-40 86-72 96-32-10-72-44-72-96V64z" fill="none" stroke="#121320" stroke-width="4" opacity="0.55" />
    <path d="M128 32l72 32v76c0 52-40 86-72 96-32-10-72-44-72-96V64z" fill="none" stroke="#00e0ff" stroke-width="2" opacity="0.35" />
    <path d="M160 80l24 40-24 40" stroke="#00e0ff" stroke-width="3" fill="none" opacity="0.6" />
    <g opacity="0.25" stroke="#00e0ff" stroke-width="2">
      <path d="M140 72l48 48" />
      <path d="M164 68l48 48" />
      <path d="M144 124l40 40" />
    </g>
    <g opacity="0.6" stroke="#d8b36f" stroke-width="3">
      <path d="M96 64l16 16" />
      <path d="M108 60l16 16" />
      <path d="M84 84l32 32" />
    </g>
  </g>
  <path d="M70 124h116" stroke="url(#engrave)" stroke-width="12" stroke-linecap="round" />
  <text x="128" y="132" font-family="'Montserrat', 'Futura', sans-serif" font-size="44" text-anchor="middle" fill="#232323" opacity="0.7">CIVIL</text>
  <text x="128" y="128" font-family="'Montserrat', 'Futura', sans-serif" font-size="44" text-anchor="middle" fill="#f4deba" letter-spacing="6">CIVIL</text>
  <path d="M40 228h176" stroke="#151515" stroke-width="10" stroke-linecap="round" opacity="0.5" />
  <path d="M40 220h176" stroke="#2e3156" stroke-width="6" stroke-linecap="round" opacity="0.7" />
</svg>
