<svg xmlns="http://www.w3.org/2000/svg" viewBox="0 0 1280 720">
  <defs>
    <linearGradient id="bgLegacy" x1="0" x2="0" y1="0" y2="1">
      <stop offset="0%" stop-color="#05060f" />
      <stop offset="100%" stop-color="#1a1d3f" />
    </linearGradient>
    <linearGradient id="horizon" x1="0" x2="0" y1="0" y2="1">
      <stop offset="0%" stop-color="#d8b36f" stop-opacity="0.65" />
      <stop offset="100%" stop-color="#05060f" stop-opacity="0" />
    </linearGradient>
    <radialGradient id="heroGlow" cx="0.5" cy="0.6" r="0.7">
      <stop offset="0%" stop-color="#00e0ff" stop-opacity="0.6" />
      <stop offset="100%" stop-color="#00e0ff" stop-opacity="0" />
    </radialGradient>
    <linearGradient id="cape" x1="0" x2="1" y1="0" y2="0">
      <stop offset="0%" stop-color="#2b2f77" />
      <stop offset="100%" stop-color="#10132c" />
    </linearGradient>
  </defs>
  <rect width="1280" height="720" fill="url(#bgLegacy)" />
  <rect x="0" y="320" width="1280" height="200" fill="#0b0d18" />
  <rect x="0" y="220" width="1280" height="180" fill="url(#horizon)" />
  <circle cx="640" cy="400" r="320" fill="url(#heroGlow)" />
  <g transform="translate(0 420)" fill="#0f1228" opacity="0.8">
    <path d="M0 120l120-60 140 80 160-120 140 80 160-120 160 100 160-140 120 120 120-80v200H0z" />
  </g>
  <g transform="translate(0 440)" fill="#151830" opacity="0.7">
    <path d="M0 100l120-60 140 80 160-120 140 80 160-120 160 100 160-140 120 120 120-80v180H0z" />
  </g>
  <g transform="translate(540 220)">
    <path d="M80 280l-40 120h160l-40-120z" fill="#1a1d3f" stroke="#00e0ff" stroke-width="4" />
    <path d="M100 160h40l80 160H20z" fill="#0f1228" stroke="#00e0ff" stroke-width="3" />
    <path d="M120 0l60 120-60 80-60-80z" fill="#d8b36f" />
    <path d="M120 0l-12 40 12 12 12-12z" fill="#f5dfb5" />
    <path d="M60 180l60 40 60-40v160H60z" fill="#0d1028" />
    <path d="M60 200l-60 140 120-60z" fill="url(#cape)" opacity="0.9" />
    <path d="M180 200l60 140-120-60z" fill="url(#cape)" opacity="0.7" />
    <path d="M100 120h40l-20 40z" fill="#8c6a2f" />
    <path d="M120 220l40-20 20 40-60 20-60-20 20-40z" fill="#d8b36f" opacity="0.85" />
    <path d="M120 240l40 40-40 40-40-40z" fill="#101326" stroke="#00e0ff" stroke-width="2" />
  </g>
  <g opacity="0.4" stroke="#00e0ff" stroke-width="2" stroke-dasharray="10 14">
    <path d="M120 520h1040" />
    <path d="M160 560h960" />
    <path d="M200 600h880" />
  </g>
  <text x="640" y="140" font-family="'Cinzel', serif" font-size="76" fill="#f0d39d" text-anchor="middle">Your Legacy Awaits</text>
  <text x="640" y="192" font-family="'Montserrat', sans-serif" font-size="32" fill="#00e0ff" text-anchor="middle">CIVIL — Build a world that remembers you.</text>
  <text x="640" y="236" font-family="'Montserrat', sans-serif" font-size="22" fill="#f0d39d" text-anchor="middle">Hero with sword overlooking a vast digital-medieval landscape.</text>
</svg>
